<?xml version="1.0" encoding="UTF-8"?>
<svg width="14px" height="14px" viewBox="0 0 14 14" version="1.1" xmlns="http://www.w3.org/2000/svg" xmlns:xlink="http://www.w3.org/1999/xlink">
    <!-- Generator: sketchtool 60.1 (101010) - https://sketch.com -->
    <title>530771EC-9713-4103-B8BE-358F390930E9</title>
    <desc>Created with sketchtool.</desc>
    <g id="Research" stroke="none" stroke-width="1" fill="none" fill-rule="evenodd">
        <g id="1.1.2-Choosen-project" transform="translate(-582.000000, -250.000000)" fill="#F95B27" fill-rule="nonzero">
            <g id="calendar-(2)" transform="translate(582.000000, 250.000000)">
                <path d="M10.9375,9.1875 L9.1875,9.1875 L9.1875,10.9375 L10.9375,10.9375 L10.9375,9.1875 Z M7.875,5.6875 L6.125,5.6875 L6.125,7.4375 L7.875,7.4375 L7.875,5.6875 Z M7.875,9.1875 L6.125,9.1875 L6.125,10.9375 L7.875,10.9375 L7.875,9.1875 Z M10.9375,5.6875 L9.1875,5.6875 L9.1875,7.4375 L10.9375,7.4375 L10.9375,5.6875 Z M13.5625,0 L0.4375,0 C0.196,0 0,0.196 0,0.4375 L0,13.5625 C0,13.804 0.196,14 0.4375,14 L13.5625,14 C13.804,14 14,13.804 14,13.5625 L14,0.4375 C14,0.196 13.804,0 13.5625,0 Z M13.125,13.125 L0.875,13.125 L0.875,3.5 L13.125,3.5 L13.125,13.125 Z M13.125,2.625 L0.875,2.625 L0.875,0.875 L13.125,0.875 L13.125,2.625 Z M4.8125,9.1875 L3.0625,9.1875 L3.0625,10.9375 L4.8125,10.9375 L4.8125,9.1875 Z M4.8125,5.6875 L3.0625,5.6875 L3.0625,7.4375 L4.8125,7.4375 L4.8125,5.6875 Z" id="Shape"></path>
            </g>
        </g>
    </g>
</svg>