<?xml version="1.0" encoding="UTF-8"?>
<svg width="18px" height="18px" viewBox="0 0 18 18" version="1.1" xmlns="http://www.w3.org/2000/svg" xmlns:xlink="http://www.w3.org/1999/xlink">
    <!-- Generator: sketchtool 60.1 (101010) - https://sketch.com -->
    <title>CF9950E0-D9C4-45E8-A081-D3BBCA827714</title>
    <desc>Created with sketchtool.</desc>
    <g id="Research" stroke="none" stroke-width="1" fill="none" fill-rule="evenodd">
        <g id="1.1.2-Choosen-project" transform="translate(-619.000000, -195.000000)" fill="#9A9A9A" fill-rule="nonzero">
            <g id="clock-(2)" transform="translate(619.000000, 195.000000)">
                <path d="M9.00006429,3.86247857 C8.46752143,3.86247857 8.03577857,4.29422143 8.03577857,4.82676429 L8.03577857,8.03982857 L4.82271429,8.03982857 C4.29017143,8.03982857 3.85842857,8.47157143 3.85842857,9.00411429 C3.85842857,9.53665714 4.29017143,9.9684 4.82271429,9.9684 L9.00006429,9.9684 C9.53260714,9.9684 9.96435,9.53665714 9.96435,9.00411429 L9.96435,4.82676429 C9.96435,4.29422143 9.53260714,3.86247857 9.00006429,3.86247857 Z" id="XMLID_350_"></path>
                <path d="M9.00006429,0 C4.0374,0 0,4.0374 0,9.00006429 C0,13.9626643 4.0374,18.0000643 9,18.0000643 C13.9626,18.0000643 18,13.9626643 18,9.00006429 C18,4.0374 13.9626643,0 9.00006429,0 Z M9.00006429,16.0714929 C5.10087857,16.0714929 1.92863571,12.89925 1.92863571,9.00006429 C1.92863571,5.10081429 5.10081429,1.92857143 9.00006429,1.92857143 C12.8993143,1.92857143 16.0714929,5.10081429 16.0714929,9.00006429 C16.0714929,12.89925 12.89925,16.0714929 9.00006429,16.0714929 Z" id="XMLID_351_"></path>
            </g>
        </g>
    </g>
</svg>