<?xml version="1.0" encoding="UTF-8"?>
<svg width="18px" height="16px" viewBox="0 0 18 16" version="1.1" xmlns="http://www.w3.org/2000/svg" xmlns:xlink="http://www.w3.org/1999/xlink">
    <!-- Generator: sketchtool 60.1 (101010) - https://sketch.com -->
    <title>FC2033F7-368D-4006-B937-05A7E6240FF4</title>
    <desc>Created with sketchtool.</desc>
    <g id="Research" stroke="none" stroke-width="1" fill="none" fill-rule="evenodd" opacity="0.5">
        <g id="1.1.1-Choose-project" transform="translate(-456.000000, -247.000000)" fill="#000000" fill-rule="nonzero">
            <g id="portfolio" transform="translate(456.000000, 247.000000)">
                <path d="M17.4759521,2.10951232 C17.4748535,2.10951232 17.4737549,2.109375 17.4726562,2.109375 L12.6914062,2.109375 L12.6914062,1.58203125 C12.6914062,0.709716797 11.9816895,0 11.109375,0 L6.890625,0 C6.01831055,0 5.30859375,0.709716797 5.30859375,1.58203125 L5.30859375,2.109375 L0.52734375,2.109375 C0.233734148,2.109375 0,2.34997559 0,2.63671875 L0,14.2382812 C0,15.1105957 0.709716797,15.8203125 1.58203125,15.8203125 L16.4179688,15.8203125 C17.2902832,15.8203125 18,15.1105957 18,14.2382812 L18,2.6478424 C18,2.64715576 18,2.64646912 18,2.64578245 C17.9798126,2.29943848 17.7668152,2.11143495 17.4759521,2.10951232 Z M6.36328125,1.58203125 C6.36328125,1.29130555 6.5998993,1.0546875 6.890625,1.0546875 L11.109375,1.0546875 C11.4001007,1.0546875 11.6367188,1.29130555 11.6367188,1.58203125 L11.6367188,2.109375 L6.36328125,2.109375 L6.36328125,1.58203125 Z M16.7409668,3.1640625 L15.1033173,8.0768738 C15.0314941,8.29261779 14.8304443,8.4375 14.6031647,8.4375 L11.6367188,8.4375 L11.6367188,7.91015625 C11.6367188,7.61888123 11.40065,7.3828125 11.109375,7.3828125 L6.890625,7.3828125 C6.59934998,7.3828125 6.36328125,7.61888123 6.36328125,7.91015625 L6.36328125,8.4375 L3.39683534,8.4375 C3.16955566,8.4375 2.96850586,8.29261779 2.89668273,8.0768738 L1.2590332,3.1640625 L16.7409668,3.1640625 Z M10.5820312,8.4375 L10.5820312,9.4921875 L7.41796875,9.4921875 L7.41796875,8.4375 L10.5820312,8.4375 Z M16.9453125,14.2382813 C16.9453125,14.5290069 16.7086944,14.765625 16.4179688,14.765625 L1.58203125,14.765625 C1.29130555,14.765625 1.0546875,14.5290069 1.0546875,14.2382813 L1.0546875,5.88633729 L1.89610291,8.41044618 C2.11170959,9.0575409 2.714859,9.4921875 3.39683534,9.4921875 L6.36328125,9.4921875 L6.36328125,10.0195312 C6.36328125,10.3108063 6.59934998,10.546875 6.890625,10.546875 L11.109375,10.546875 C11.40065,10.546875 11.6367188,10.3108063 11.6367188,10.0195312 L11.6367188,9.4921875 L14.6031647,9.4921875 C15.285141,9.4921875 15.8882904,9.0575409 16.1038971,8.41044618 L16.9453125,5.88633729 L16.9453125,14.2382813 Z" id="Shape"></path>
            </g>
        </g>
    </g>
</svg>