<?xml version="1.0" encoding="UTF-8"?>
<svg width="18px" height="18px" viewBox="0 0 18 18" version="1.1" xmlns="http://www.w3.org/2000/svg" xmlns:xlink="http://www.w3.org/1999/xlink">
    <!-- Generator: sketchtool 60.1 (101010) - https://sketch.com -->
    <title>05EBA592-4592-4D7B-9843-30697F812F55</title>
    <desc>Created with sketchtool.</desc>
    <g id="Research" stroke="none" stroke-width="1" fill="none" fill-rule="evenodd">
        <g id="1.1.2-Choosen-project" transform="translate(-473.000000, -196.000000)" fill="#F15927" fill-rule="nonzero">
            <g id="quarter" transform="translate(473.000000, 196.000000)">
                <path d="M8.68276976,2.62504579 C5.34223937,2.62504579 2.62504579,5.34223937 2.62504579,8.68276976 C2.62504579,8.96168517 2.85081483,9.18745421 3.12973024,9.18745421 L8.68276976,9.18745421 C8.96168517,9.18745421 9.18745421,8.96168517 9.18745421,8.68276976 L9.18745421,3.12973024 C9.18745421,2.85081483 8.96168517,2.62504579 8.68276976,2.62504579 Z" id="Path"></path>
                <path d="M9,18 C4.03720095,18 0,13.9627991 0,9 C0,4.03720095 4.03720095,0 9,0 C13.9627991,0 18,4.03720095 18,9 C18,13.9627991 13.9627991,18 9,18 Z M9,1.50004579 C4.86447145,1.50004579 1.50004579,4.86447145 1.50004579,9 C1.50004579,13.1355285 4.86447145,16.4999542 9,16.4999542 C13.1355285,16.4999542 16.4999542,13.1355285 16.4999542,9 C16.4999542,4.86447145 13.1355285,1.50004579 9,1.50004579 Z" id="Shape"></path>
            </g>
        </g>
    </g>
</svg>