<?xml version="1.0" encoding="UTF-8"?>
<svg width="11px" height="12px" viewBox="0 0 11 12" version="1.1" xmlns="http://www.w3.org/2000/svg" xmlns:xlink="http://www.w3.org/1999/xlink">
    <!-- Generator: sketchtool 60.1 (101010) - https://sketch.com -->
    <title>1550BB16-7B3F-4FC8-BB65-B56C6681811D</title>
    <desc>Created with sketchtool.</desc>
    <g id="Research" stroke="none" stroke-width="1" fill="none" fill-rule="evenodd">
        <g id="1.1.2-Choosen-project" transform="translate(-476.000000, -464.000000)">
            <g id="iconfinder_user_male3_172627" transform="translate(475.000000, 464.000000)">
                <rect id="Rectangle" x="0" y="0" width="12" height="12"></rect>
                <path d="M7.42392,7.80672 C7.38888,7.41984 7.40232,7.14984 7.40232,6.79632 C7.57752,6.7044 7.89144,6.11832 7.94448,5.6232 C8.08224,5.61192 8.29944,5.47752 8.36304,4.94688 C8.39736,4.662 8.26104,4.50168 8.178,4.45128 C8.40216,3.77712 8.86776,1.69152 7.31688,1.476 C7.15728,1.19568 6.74856,1.05384 6.21744,1.05384 C4.09248,1.09296 3.83616,2.65848 4.302,4.45128 C4.2192,4.50168 4.08288,4.662 4.11696,4.94688 C4.1808,5.47752 4.39776,5.61192 4.53552,5.6232 C4.58832,6.11808 4.91472,6.7044 5.0904,6.79632 C5.0904,7.14984 5.1036,7.41984 5.06856,7.80672 C4.64808,8.93712 1.81104,8.61984 1.68,10.8 L10.8,10.8 C10.6692,8.61984 7.8444,8.93712 7.42392,7.80672 Z" id="Path" stroke="#000000" opacity="0.5" stroke-linecap="round"></path>
            </g>
        </g>
    </g>
</svg>